<svg width="56" height="44" viewBox="0 0 56 44" fill="none" xmlns="http://www.w3.org/2000/svg">
<rect width="56" height="44" rx="22" fill="white"/>
<path d="M36.125 17.625V26.375C36.125 26.8723 35.9275 27.3492 35.5758 27.7008C35.2242 28.0525 34.7473 28.25 34.25 28.25H21.75C21.2527 28.25 20.7758 28.0525 20.4242 27.7008C20.0725 27.3492 19.875 26.8723 19.875 26.375V17.625M36.125 17.625C36.125 17.1277 35.9275 16.6508 35.5758 16.2992C35.2242 15.9475 34.7473 15.75 34.25 15.75H21.75C21.2527 15.75 20.7758 15.9475 20.4242 16.2992C20.0725 16.6508 19.875 17.1277 19.875 17.625M36.125 17.625V17.8275C36.125 18.1476 36.0431 18.4624 35.887 18.7419C35.7309 19.0214 35.5059 19.2563 35.2333 19.4242L28.9833 23.27C28.6877 23.4521 28.3472 23.5485 28 23.5485C27.6528 23.5485 27.3123 23.4521 27.0167 23.27L20.7667 19.425C20.4941 19.2571 20.2691 19.0222 20.113 18.7427C19.9569 18.4633 19.875 18.1485 19.875 17.8283V17.625" stroke="black" stroke-linecap="round" stroke-linejoin="round"/>
</svg>
