<svg width="68" height="44" viewBox="0 0 68 44" fill="none" xmlns="http://www.w3.org/2000/svg">
<path d="M16.4493 30.208C15.7274 30.7845 15.0433 31.2455 14.4355 31.2455C13.8655 31.2455 13.5239 30.669 13.7514 29.5167L16.1446 17.5273C16.79 14.2226 15.5368 11.9554 12.4595 11.9554C9.38211 11.9554 7.10312 15.1447 4.97605 19.9863L8.09209 4L3.4199 4.19187L3.38216 4.26824L5.12987 4.61379L0 31.091H2.81124L4.82505 20.7929C6.19245 17.3727 8.85175 12.3 11.8149 12.3C13.6768 12.3 13.9042 14.7209 13.2965 17.6419L11.0553 28.4019C10.6749 30.2842 11.3214 31.7838 13.0681 31.7838C14.36 31.7838 15.3094 31.3992 16.4871 30.3235L16.4493 30.208Z" fill="black"/>
<path d="M66.4034 12.2628L67.9992 4L63.327 4.19187L63.2892 4.26824L65.0369 4.61379L63.0996 14.5662C62.8334 13.2985 61.6935 11.9535 59.9081 11.9535C54.2478 11.9535 49.1953 18.7931 49.1953 25.7109C49.1953 29.4003 51.1327 31.7821 54.6282 31.7821C57.7433 31.7821 59.9845 27.2478 61.1999 24.2886L60.4026 28.3999C60.0222 30.2824 60.6686 31.7821 62.4164 31.7821C63.7084 31.7821 64.6576 31.3972 65.8353 30.3215L65.7976 30.206C65.0757 30.7825 64.3916 31.2436 63.7837 31.2436C63.2139 31.2436 62.8721 30.6671 63.0996 29.5149L66.4045 12.2619L66.4034 12.2628ZM61.4652 22.9837C60.2875 26.4421 57.6282 31.3992 54.9689 31.4756C53.5628 31.4756 52.4991 29.3621 52.4991 25.7119C52.4991 19.8708 55.8804 12.1855 59.907 12.1855C61.5029 12.1855 62.7561 13.2613 62.9845 15.0674L61.4652 22.9837Z" fill="black"/>
<path d="M33.1263 15.9505C33.1263 13.5679 31.1511 12.031 27.8841 12.031C22.1097 12.031 17.4375 17.9484 17.4375 24.0587C17.4375 28.9775 19.9071 31.8596 23.7055 31.8596C27.0868 31.8596 29.1382 30.0153 30.581 28.1701L30.4291 28.0164C29.0241 29.7068 26.9725 31.1674 24.769 31.1674C22.338 31.1674 20.6281 28.401 20.6281 24.135V23.6358C26.3637 23.5976 33.1263 21.7142 33.1263 15.9496V15.9505ZM27.466 12.2238C29.4412 12.2238 30.2772 13.7989 30.2772 15.6823C30.2772 19.8709 25.6052 23.3294 20.6281 23.4449C20.8942 18.3723 23.933 12.2238 27.466 12.2238Z" fill="black"/>
<path d="M49.0424 15.9505C49.0424 13.5679 47.0671 12.031 43.8001 12.031C38.0257 12.031 33.3535 17.9484 33.3535 24.0587C33.3535 28.9775 35.823 31.8596 39.6216 31.8596C43.0026 31.8596 45.0542 30.0153 46.4971 28.1701L46.3452 28.0164C44.94 29.7068 42.8886 31.1674 40.685 31.1674C38.254 31.1674 36.5441 28.401 36.5441 24.135V23.6358C42.2798 23.5976 49.0424 21.7142 49.0424 15.9496V15.9505ZM43.382 12.2238C45.3572 12.2238 46.1933 13.7989 46.1933 15.6823C46.1933 19.8709 41.521 23.3294 36.5441 23.4449C36.8103 18.3723 39.8488 12.2238 43.382 12.2238Z" fill="black"/>
</svg>
