<svg width="56" height="44" viewBox="0 0 56 44" fill="none" xmlns="http://www.w3.org/2000/svg">
<path d="M11.6336 8.24234C11.7863 8.08714 11.9935 7.99998 12.2094 8H15.354C15.5153 8.00006 15.673 8.04876 15.8071 8.13995C15.9412 8.23115 16.0457 8.36074 16.1074 8.51234C16.1691 8.66395 16.1853 8.83076 16.1538 8.9917C16.1224 9.15265 16.0447 9.3005 15.9307 9.41656L11.481 13.9438L7.03138 18.4712C6.95558 18.5482 6.89544 18.6396 6.8544 18.7402C6.81336 18.8409 6.79225 18.9488 6.79225 19.0579C6.79225 19.1668 6.81336 19.2747 6.8544 19.3754C6.89544 19.4761 6.95558 19.5675 7.03138 19.6445L15.9513 28.7208C16.0629 28.8355 16.1388 28.9811 16.1693 29.1394C16.1999 29.2978 16.1837 29.4618 16.123 29.6109C16.0622 29.7599 15.9594 29.8873 15.8276 29.9771C15.6959 30.067 15.5409 30.1151 15.3824 30.1156H12.2119C11.994 30.1156 11.7851 30.0275 11.631 29.8707L5.26197 23.3911C5.14653 23.274 4.99956 23.1943 4.83963 23.1621C4.6797 23.1299 4.51397 23.1466 4.36335 23.2101C4.21274 23.2736 4.084 23.3811 3.99337 23.5189C3.90274 23.6569 3.8543 23.819 3.85415 23.9848V29.2779C3.85426 29.3879 3.83307 29.4968 3.79178 29.5985C3.75049 29.7001 3.68992 29.7924 3.61352 29.8702C3.53713 29.948 3.44641 30.0098 3.34655 30.0519C3.2467 30.094 3.13966 30.1156 3.03156 30.1156H0.81573C0.599385 30.1156 0.391901 30.0282 0.238922 29.8726C0.0859427 29.7169 0 29.5059 0 29.2858V8.83686C0 8.61491 0.086665 8.40205 0.240929 8.24511C0.395194 8.08817 0.604422 8 0.822584 8H3.05127C3.15686 7.99977 3.26144 8.02073 3.35905 8.06168C3.45666 8.10262 3.54537 8.16275 3.6201 8.23862C3.69483 8.31449 3.75413 8.40461 3.79459 8.50383C3.83505 8.60304 3.85587 8.7094 3.85587 8.81681V14.1892C3.85581 14.3509 3.90294 14.5089 3.99129 14.6432C4.07962 14.7775 4.20519 14.8822 4.35204 14.9438C4.49891 15.0054 4.66046 15.0213 4.8162 14.9894C4.97195 14.9575 5.11487 14.8792 5.22684 14.7646L11.6336 8.24234Z" fill="black"/>
<path fill-rule="evenodd" clip-rule="evenodd" d="M17.4161 12.6646C18.659 11.8199 20.1202 11.3691 21.615 11.3693C23.6186 11.3718 25.5393 12.1827 26.9559 13.6241C28.3725 15.0654 29.1693 17.0196 29.1716 19.0579C29.1716 20.5786 28.7283 22.0651 27.8979 23.3295C27.0674 24.5939 25.887 25.5794 24.506 26.1613C23.125 26.7432 21.6055 26.8954 20.1394 26.5987C18.6734 26.302 17.3267 25.5696 16.2699 24.4942C15.213 23.4189 14.4932 22.0488 14.2017 20.5573C13.9103 19.0658 14.06 17.5199 14.6321 16.115C15.2043 14.7101 16.1731 13.5093 17.4161 12.6646ZM19.5572 22.19C20.1663 22.6039 20.8825 22.8247 21.615 22.8246C22.5966 22.8234 23.5377 22.4262 24.2318 21.72C24.9259 21.0139 25.3164 20.0565 25.3175 19.0579C25.3176 18.3126 25.1005 17.5841 24.6937 16.9644C24.2869 16.3447 23.7084 15.8616 23.0317 15.5764C22.355 15.2911 21.6103 15.2164 20.8918 15.3618C20.1734 15.5071 19.5135 15.8659 18.9954 16.3929C18.4775 16.9199 18.1248 17.5913 17.9819 18.3222C17.8391 19.0531 17.9124 19.8107 18.1929 20.4992C18.4733 21.1877 18.9481 21.776 19.5572 22.19Z" fill="black"/>
<path fill-rule="evenodd" clip-rule="evenodd" d="M48.4423 11.3693C46.9475 11.3693 45.4864 11.8202 44.2435 12.665C43.0007 13.5099 42.0321 14.7107 41.4601 16.1156C40.888 17.5205 40.7384 19.0664 41.03 20.5579C41.3216 22.0492 42.0414 23.4193 43.0983 24.4946C44.1552 25.5698 45.5019 26.3021 46.9679 26.5988C48.4339 26.8954 49.9534 26.7432 51.3344 26.1612C52.7153 25.5793 53.8956 24.5938 54.7261 23.3294C55.5565 22.065 55.9998 20.5785 55.9998 19.0579C55.9975 17.0194 55.2005 15.0652 53.7837 13.6238C52.3669 12.1824 50.4459 11.3716 48.4423 11.3693ZM48.4423 22.8246C47.7098 22.8246 46.9938 22.6036 46.3848 22.1896C45.7757 21.7756 45.301 21.1871 45.0207 20.4986C44.7405 19.8101 44.6672 19.0525 44.8101 18.3217C44.9531 17.5908 45.3059 16.9195 45.8239 16.3926C46.342 15.8657 47.0019 15.507 47.7203 15.3617C48.4388 15.2164 49.1834 15.2912 49.8601 15.5764C50.5367 15.8617 51.1151 16.3448 51.5219 16.9645C51.9288 17.5842 52.1458 18.3126 52.1456 19.0579C52.1447 20.0568 51.7542 21.0145 51.0598 21.7206C50.3655 22.4269 49.4241 22.8239 48.4423 22.8246Z" fill="black"/>
<path d="M40.2067 23.3973V25.6585C40.2065 25.8772 40.121 26.0868 39.9691 26.2413C39.8171 26.396 39.6111 26.4829 39.3962 26.4832H30.6493C30.4377 26.4832 30.2348 26.3977 30.0852 26.2455C29.9357 26.0932 29.8516 25.8868 29.8516 25.6715V23.3833C29.8518 23.1655 29.937 22.9566 30.0886 22.8026C30.2401 22.6487 30.4454 22.5621 30.6596 22.5621H32.2799C32.4979 22.5621 32.7069 22.474 32.861 22.3172C33.0151 22.1605 33.1017 21.9478 33.1017 21.7262V12.4667C33.1017 12.357 33.1229 12.2483 33.1642 12.1469C33.2055 12.0455 33.2661 11.9534 33.3424 11.8759C33.4187 11.7983 33.5093 11.7368 33.609 11.6949C33.7087 11.653 33.8155 11.6315 33.9234 11.6316H36.1255C36.3459 11.6316 36.5573 11.7207 36.7132 11.8793C36.8691 12.0378 36.9567 12.2529 36.9567 12.4772V21.7253C36.9566 21.8352 36.9777 21.9439 37.019 22.0455C37.0602 22.147 37.1207 22.2392 37.197 22.317C37.2734 22.3947 37.364 22.4563 37.4637 22.4984C37.5635 22.5405 37.6704 22.5621 37.7784 22.5621H39.3859C39.6035 22.5621 39.8124 22.6502 39.9663 22.8068C40.1202 22.9634 40.2067 23.1757 40.2067 23.3973Z" fill="black"/>
<path d="M47.1061 31.1765C47.3208 32.0913 47.5365 33.0054 47.753 33.9189C47.7674 33.993 47.7673 34.0692 47.7525 34.1432C47.7378 34.2171 47.7088 34.2874 47.6672 34.35C47.6256 34.4125 47.5723 34.466 47.5102 34.5073C47.4481 34.5488 47.3786 34.5771 47.3057 34.591C39.2294 36.4696 30.8406 36.4696 22.7644 34.591C22.69 34.5769 22.6191 34.548 22.5558 34.5058C22.4925 34.4636 22.438 34.4091 22.3956 34.3454C22.3531 34.2817 22.3234 34.21 22.3084 34.1346C22.2933 34.0591 22.293 33.9814 22.3077 33.9059C22.5231 32.9934 22.7385 32.0808 22.9538 31.1678C22.9884 31.0266 23.0765 30.9051 23.1988 30.8295C23.3209 30.7539 23.4676 30.7305 23.6067 30.7642C31.1222 32.5137 38.9291 32.5137 46.4445 30.7642C46.586 30.7306 46.7347 30.7549 46.8586 30.8321C46.9824 30.9093 47.0713 31.0331 47.1061 31.1765Z" fill="black"/>
</svg>
