<svg width="1158" height="272" viewBox="0 0 1158 272" fill="none" xmlns="http://www.w3.org/2000/svg">
<path d="M116.44 272.124C50.1939 272.124 3.71194 237.72 0.783936 178.794H42.5079C45.4359 213.93 66.2979 237.72 115.342 237.72C157.432 237.72 170.242 219.42 170.242 195.63C170.242 162.324 144.622 157.566 97.0419 145.488C56.0499 134.508 11.0319 121.332 11.0319 71.5555C11.0319 26.1715 46.1679 0.185547 102.532 0.185547C162.19 0.185547 200.986 30.5635 205.012 83.2675H163.288C158.896 51.7916 140.962 34.5895 102.898 34.5895C69.9579 34.5895 53.1219 46.6675 53.1219 69.3596C53.1219 98.6396 80.5719 104.862 114.244 113.28C164.752 126.09 212.332 138.168 212.332 193.434C212.332 238.452 181.954 272.124 116.44 272.124Z" fill="#C3BDFA"/>
<path d="M249.401 267H206.945L304.301 5.30955H347.855L445.943 267H402.023L380.429 204.048H270.995L249.401 267ZM325.529 42.6415L283.073 170.01H369.083L326.261 42.6415H325.529Z" fill="#C3BDFA"/>
<path d="M502.364 267H462.104V5.30955H571.172C629 5.30955 660.11 32.3935 660.11 80.7056C660.11 114.012 639.98 138.168 611.066 144.756V145.488C671.822 156.834 649.496 260.046 663.77 264.438V267H620.582C608.87 256.02 633.758 164.52 569.708 164.52H502.364V267ZM502.364 129.75H562.388C599.354 129.75 619.484 113.646 619.484 83.6335C619.484 55.4516 603.38 40.0796 563.12 40.0796H502.364V129.75Z" fill="#C3BDFA"/>
<path d="M806.61 272.124C728.286 272.124 678.144 214.662 678.144 135.972C678.144 57.2816 728.286 0.185547 806.61 0.185547C884.934 0.185547 935.076 57.2816 935.076 135.972C935.076 214.662 884.934 272.124 806.61 272.124ZM806.61 237.354C868.464 237.354 892.986 189.774 892.986 135.972C892.986 82.1696 868.464 34.9556 806.61 34.9556C744.756 34.9556 720.234 82.1696 720.234 135.972C720.234 189.774 744.756 237.354 806.61 237.354Z" fill="#C3BDFA"/>
<path d="M1061.86 272.124C995.618 272.124 949.136 237.72 946.208 178.794H987.932C990.86 213.93 1011.72 237.72 1060.77 237.72C1102.86 237.72 1115.67 219.42 1115.67 195.63C1115.67 162.324 1090.05 157.566 1042.47 145.488C1001.47 134.508 956.456 121.332 956.456 71.5555C956.456 26.1715 991.592 0.185547 1047.96 0.185547C1107.61 0.185547 1146.41 30.5635 1150.44 83.2675H1108.71C1104.32 51.7916 1086.39 34.5895 1048.32 34.5895C1015.38 34.5895 998.546 46.6675 998.546 69.3596C998.546 98.6396 1026 104.862 1059.67 113.28C1110.18 126.09 1157.76 138.168 1157.76 193.434C1157.76 238.452 1127.38 272.124 1061.86 272.124Z" fill="#C3BDFA"/>
</svg>
